#N canvas 171 173 958 408 10;
#N canvas 0 22 450 278 (subpatch) 0;
#X array exp_curve 100 float 2;
#X coords 0 1 99 0 200 140 1 0 0;
#X restore 238 -207 graph;
#X obj 28 -162 until;
#X obj 28 -108 f;
#X obj 55 -108 + 1;
#X obj 28 -86 t f f;
#X msg 43 -130 0;
#X floatatom 55 -37 5 0 0 0 - - -;
#X obj 28 6 tabwrite exp_curve;
#N canvas 0 22 450 278 (subpatch) 0;
#X array log_curve 100 float 2;
#X coords 0 1 99 0 200 140 1 0 0;
#X restore 744 -207 graph;
#X text 89 -37 the greater the power \, the steeper the curve;
#X floatatom 558 56 5 0 0 0 - - -;
#X obj 558 77 tabread log_curve;
#X floatatom 558 99 5 0 0 0 - - -;
#X text 598 56 check the y values of the respective x index;
#X floatatom 28 56 5 0 0 0 - - -;
#X floatatom 28 99 5 0 0 0 - - -;
#X text 68 56 check the y values of the respective x index;
#X obj 28 77 tabread exp_curve;
#X obj 28 -60 /;
#X floatatom 28 -206 5 0 0 0 - - -;
#X obj 28 -16 pow 4;
#X obj 28 -184 t f b f f;
#N canvas 655 92 299 374 fix_size-exp 0;
#X msg 125 -29 resize \$1;
#X obj 108 -4 - 1;
#X msg 108 19 bounds 0 1 \$1 0;
#X obj 125 203 s exp_curve;
#X obj 74 69 / 100;
#X obj 74 92 * -1;
#X msg 74 163 ylabel \$1 0 1;
#X obj 74 114 moses -2;
#X obj 74 135 - 1;
#X obj 74 -74 inlet;
#X obj 36 -116 loadbang;
#X msg 36 -94 100;
#X msg 91 40 xlabel -0.04 \$1;
#X obj 74 -52 t f f f f;
#X connect 0 0 3 0;
#X connect 1 0 2 0;
#X connect 2 0 3 0;
#X connect 4 0 5 0;
#X connect 5 0 7 0;
#X connect 6 0 3 0;
#X connect 7 0 8 0;
#X connect 7 1 6 0;
#X connect 8 0 6 0;
#X connect 9 0 13 0;
#X connect 10 0 11 0;
#X connect 11 0 13 0;
#X connect 12 0 3 0;
#X connect 13 0 4 0;
#X connect 13 1 12 0;
#X connect 13 2 1 0;
#X connect 13 3 0 0;
#X restore 79 -162 pd fix_size-exp;
#X obj 558 -162 until;
#X obj 558 -108 f;
#X obj 585 -108 + 1;
#X obj 558 -86 t f f;
#X msg 573 -130 0;
#X floatatom 603 -37 5 0 0 0 - - -;
#X obj 558 -60 /;
#X floatatom 558 -206 5 0 0 0 - - -;
#X obj 558 -184 t f b f f;
#X text 637 -37 the smaller the power \, the steeper the curve;
#X obj 558 6 tabwrite log_curve;
#N canvas 295 283 665 360 log_curve_using_[log] 0;
#N canvas 0 22 450 278 (subpatch) 0;
#X array log_curve2 400 float 2;
#X coords 0 1 399 0 200 140 1;
#X restore 406 -115 graph;
#X obj 61 60 log;
#X obj 61 36 + 1;
#X obj 61 -62 until;
#X obj 61 -10 f;
#X obj 88 -10 + 1;
#X obj 61 12 t f f;
#X msg 76 -32 0;
#X text 124 54 check the number you get out of [log] with the highest
value and divide by it.;
#X obj 95 65 log;
#X floatatom 61 -106 5 0 0 0 - - -;
#X obj 61 82 /;
#N canvas 306 22 287 415 fix_size-log 0;
#X msg 125 -39 resize \$1;
#X obj 108 -14 - 1;
#X msg 108 9 bounds 0 1 \$1 0;
#X obj 74 59 / 100;
#X obj 74 82 * -1;
#X msg 74 153 ylabel \$1 0 1;
#X obj 74 104 moses -2;
#X obj 74 125 - 1;
#X obj 74 -84 inlet;
#X obj 46 -146 loadbang;
#X msg 46 -124 100;
#X obj 74 -62 t f f f f;
#X msg 91 33 xlabel -0.04 \$1;
#X obj 125 193 s log_curve2;
#X connect 0 0 13 0;
#X connect 1 0 2 0;
#X connect 2 0 13 0;
#X connect 3 0 4 0;
#X connect 4 0 6 0;
#X connect 5 0 13 0;
#X connect 6 0 7 0;
#X connect 6 1 5 0;
#X connect 7 0 5 0;
#X connect 8 0 11 0;
#X connect 9 0 10 0;
#X connect 10 0 11 0;
#X connect 11 0 3 0;
#X connect 11 1 12 0;
#X connect 11 2 1 0;
#X connect 11 3 0 0;
#X connect 12 0 13 0;
#X restore 112 -62 pd fix_size-log;
#X obj 61 -84 t f b f f;
#X obj 61 104 tabwrite log_curve2;
#X connect 1 0 11 0;
#X connect 2 0 1 0;
#X connect 3 0 4 0;
#X connect 4 0 5 0;
#X connect 4 0 6 0;
#X connect 5 0 4 1;
#X connect 6 0 2 0;
#X connect 6 1 14 1;
#X connect 7 0 4 1;
#X connect 9 0 11 1;
#X connect 10 0 13 0;
#X connect 11 0 14 0;
#X connect 13 0 3 0;
#X connect 13 1 7 0;
#X connect 13 2 9 0;
#X connect 13 3 12 0;
#X restore 558 153 pd log_curve_using_[log];
#X obj 558 -16 pow 0.25;
#N canvas 655 92 299 374 fix_size-log 0;
#X msg 125 -29 resize \$1;
#X obj 108 -4 - 1;
#X msg 108 19 bounds 0 1 \$1 0;
#X obj 74 69 / 100;
#X obj 74 92 * -1;
#X msg 74 163 ylabel \$1 0 1;
#X obj 74 114 moses -2;
#X obj 74 135 - 1;
#X obj 74 -74 inlet;
#X obj 36 -116 loadbang;
#X msg 36 -94 100;
#X msg 91 40 xlabel -0.04 \$1;
#X obj 74 -52 t f f f f;
#X obj 125 203 s log_curve;
#X connect 0 0 13 0;
#X connect 1 0 2 0;
#X connect 2 0 13 0;
#X connect 3 0 4 0;
#X connect 4 0 6 0;
#X connect 5 0 13 0;
#X connect 6 0 7 0;
#X connect 6 1 5 0;
#X connect 7 0 5 0;
#X connect 8 0 12 0;
#X connect 9 0 10 0;
#X connect 10 0 12 0;
#X connect 11 0 13 0;
#X connect 12 0 3 0;
#X connect 12 1 11 0;
#X connect 12 2 1 0;
#X connect 12 3 0 0;
#X restore 609 -162 pd fix_size-log;
#X connect 1 0 2 0;
#X connect 2 0 3 0;
#X connect 2 0 4 0;
#X connect 3 0 2 1;
#X connect 4 0 18 0;
#X connect 4 1 7 1;
#X connect 5 0 2 1;
#X connect 6 0 20 1;
#X connect 10 0 11 0;
#X connect 11 0 12 0;
#X connect 14 0 17 0;
#X connect 17 0 15 0;
#X connect 18 0 20 0;
#X connect 19 0 21 0;
#X connect 20 0 7 0;
#X connect 21 0 1 0;
#X connect 21 1 5 0;
#X connect 21 2 18 1;
#X connect 21 3 22 0;
#X connect 23 0 24 0;
#X connect 24 0 25 0;
#X connect 24 0 26 0;
#X connect 25 0 24 1;
#X connect 26 0 29 0;
#X connect 26 1 33 1;
#X connect 27 0 24 1;
#X connect 28 0 35 1;
#X connect 29 0 35 0;
#X connect 30 0 31 0;
#X connect 31 0 23 0;
#X connect 31 1 27 0;
#X connect 31 2 29 1;
#X connect 31 3 36 0;
#X connect 35 0 33 0;
